<svg xmlns="http://www.w3.org/2000/svg" width="512" height="512" fill="none" viewBox="0 0 512 512"><g clip-path="url(#clip0)"><rect width="512" height="512" fill="url(#paint0_linear)" rx="40"/><path fill="#fff" d="M142.385 443V63.992L217.481 51.896V178.904C222.521 177.224 228.905 175.712 236.633 174.368C244.697 172.688 252.425 171.848 259.817 171.848C281.321 171.848 299.129 174.872 313.241 180.92C327.689 186.632 339.113 194.864 347.513 205.616C356.249 216.368 362.297 229.136 365.657 243.92C369.353 258.704 371.201 275.168 371.201 293.312V443H296.105V302.384C296.105 278.192 292.913 261.056 286.529 250.976C280.481 240.896 269.057 235.856 252.257 235.856C245.537 235.856 239.153 236.528 233.105 237.872C227.393 238.88 222.185 240.056 217.481 241.4V443H142.385Z"/></g><defs><linearGradient id="paint0_linear" x1="0" x2="512" y1="0" y2="512" gradientUnits="userSpaceOnUse"><stop stop-color="#10B981"/><stop offset="1" stop-color="#3B82F6"/></linearGradient><clipPath id="clip0"><rect width="512" height="512" fill="#fff"/></clipPath></defs></svg>